PathFileType	4	(X/Y/Z)	Patient4_TMGait_0pt4_02_left_39.trc.trc
DataRate	CameraRate	NumFrames	NumMarkers	Units	OrigDataRate	OrigDataStartFrame	OrigNumFrames
78.651685393258	78.651685393258	4	33	mm	78.651685393258	36	       141
Frame#	Time	Sacral			L.Shoulder			Chest			R.Shoulder			Neck			R.ASIS			L.ASIS			R.Thigh.Superior			R.Thigh.Lateral			R.Thigh.Inferior			R.Patella			L.Thigh.Superior			L.Thigh.Lateral			L.Thigh.Inferior			L.Patella			L.Shank.Superior			L.Shank.Lateral			L.Shank.Inferior			R.Shank.Superior			R.Shank.Lateral			R.Shank.Inferior			R.Heel			R.Midfoot.Superior			R.Midfoot.Lateral			R.Toe			L.Heel			L.Midfoot.Lateral			L.Midfoot.Superior			L.Toe			L.Elbow			L.Wrist			R.Elbow			R.Wrist			
		X1	Y1	Z1	X2	Y2	Z2	X3	Y3	Z3	X4	Y4	Z4	X5	Y5	Z5	X6	Y6	Z6	X7	Y7	Z7	X8	Y8	Z8	X9	Y9	Z9	X10	Y10	Z10	X11	Y11	Z11	X12	Y12	Z12	X13	Y13	Z13	X14	Y14	Z14	X15	Y15	Z15	X16	Y16	Z16	X17	Y17	Z17	X18	Y18	Z18	X19	Y19	Z19	X20	Y20	Z20	X21	Y21	Z21	X22	Y22	Z22	X23	Y23	Z23	X24	Y24	Z24	X25	Y25	Z25	X26	Y26	Z26	X27	Y27	Z27	X28	Y28	Z28	X29	Y29	Z29	X30	Y30	Z30	X31	Y31	Z31	X32	Y32	Z32	X33	Y33	Z33	

36	52.565000000000	837.921180377804	1004.076321561255	506.656508919693	982.689835846292	1429.451678061511	302.903360670641	1112.341756604948	1362.720197574120	444.342342117791	1060.261158773291	1436.944717540440	629.832467537274	990.827302941383	1492.525168435188	460.771934644805	1077.978431831110	932.763294512814	587.904532803445	1027.779169134755	964.975200361799	318.584091518463	1088.189710357547	722.346915224687	562.429140274792	1001.885147435751	623.224662745877	639.277631164383	1064.209961422797	557.482836216613	557.105170241386	1052.033176223621	458.809184019681	575.014977215862	1097.515331599885	763.328791756816	342.398207292918	1019.400696910181	639.875292335304	283.788708207291	1115.644089611619	569.625691760178	338.171597960120	1123.185846198797	499.191006752048	343.744370649349	1099.101004913917	425.995789119302	334.588663382880	1012.629422133447	308.785495399252	283.905311687811	1074.237649913650	197.242056554083	346.690936082231	990.331402421763	385.767936301975	588.458443949344	889.542423592793	319.324557600869	661.220140342931	890.580500683196	211.569178460672	605.996709300403	708.568546012812	87.782607722395	592.935853968115	886.453158713557	102.917305554016	624.734014135631	789.464610448327	60.709359335381	664.468992579185	992.165161451226	36.964486735570	651.929855518536	957.422171958816	38.961979175432	390.617924702919	1027.725945502599	36.018053784914	306.767288944337	1111.749843622842	97.547569160713	330.711576877129	1239.023835782000	45.748961775671	296.155649967489	928.017621806679	1082.655157122294	182.506660313085	1025.406846215395	839.503296473918	149.908351737252	1130.144779259812	1085.591975004382	720.695107285707	1316.825093422506	978.315156961494	581.006961124447	
37	52.577714285714	838.143160168786	1004.134941718729	502.455595885410	983.043078037582	1430.121236590658	299.404149660502	1111.927846815237	1363.544265231914	441.575505229641	1058.542062322300	1437.457372112434	626.781627705352	990.108160995949	1492.989172426642	457.446758977159	1077.784287772462	933.409816574929	584.991527563905	1029.099603228857	965.227427086826	315.404013123810	1091.802939444337	723.763552421934	559.615459990705	1007.635961089856	623.306485017851	636.673311093033	1071.746328937319	558.252834969451	554.807257257844	1060.750536762568	458.015789252569	574.135436193403	1098.065268733445	762.890220212595	338.138539313380	1018.031523230713	639.631455048477	281.219039428815	1114.209939192265	568.881743578448	334.872248477908	1121.384874363648	498.611287532028	341.252237431026	1096.882060432237	425.341393396742	332.638928353482	1009.631639843123	308.529589328652	282.403097398558	1070.231103282288	196.854009192947	345.869577610327	996.704884219336	385.980190636733	587.471147372941	893.483030185018	323.047449278678	659.917807740626	892.359257972676	214.703597174693	605.824591311624	706.920824973223	96.895991674312	592.748309649334	885.146606845788	104.744624171996	624.825678076717	786.491804727109	66.486891612071	664.307673522198	987.304792652770	36.329329140063	651.914358225576	952.394345117000	38.977833760528	390.469500673865	1022.656286409601	35.920080634124	306.568914288379	1106.718161302719	97.439267009012	330.448760019208	1234.036926330983	45.494844476855	295.923519918017	929.824559748540	1083.357522997402	178.256103735693	1029.045218509602	840.813205432886	146.716589380242	1126.000220154849	1085.892357223131	718.913886960171	1308.356382448800	967.600525400631	581.712919949872	
38	52.590428571429	838.252475027793	1004.087263058294	498.300016810744	983.508335912993	1430.671267928728	295.916919743308	1111.470063013324	1364.275619157275	438.953369375221	1056.602420292094	1437.840703740165	623.835201177968	989.345855291588	1493.354342113791	454.139007350568	1077.445778390728	933.929787271048	582.331219167622	1030.431806729609	965.350021200067	312.456435513492	1095.836749748094	725.346568114161	557.005361796776	1013.921411619938	623.422140074306	634.115704497234	1079.943729879937	559.224261936165	552.568879405886	1070.096915703704	457.494384095592	573.123181875967	1098.365921487061	762.211208736751	334.151982627509	1016.514482927217	639.345783718140	278.678977848348	1112.515944281516	568.071659695053	331.804816373286	1119.287011718186	497.955510483078	338.833054958956	1094.393191095484	424.634502948298	330.719546958066	1006.406610140810	308.183057581412	280.970675157493	1066.108452509297	196.431499604099	345.076631559772	1003.794049528616	386.366357337076	586.369635799469	898.206770825018	327.120078079401	658.496224133475	894.778881839779	218.271154134736	605.536167851592	705.976228252534	107.039922240854	592.401596342664	884.257172608870	107.059990603957	624.770925263098	783.958237771948	73.203080967824	664.060389858900	982.507834677123	35.621810152811	651.894129959238	947.290296056831	38.970729622129	390.346761630961	1017.514505834546	35.794055114064	306.397443963660	1101.628886663498	97.268138169377	330.230528843367	1228.984909593090	45.161619894543	295.748143983567	931.558605069413	1084.023186334981	173.906287498557	1032.779619501774	842.163198930054	143.497403574723	1121.611558226535	1086.088923889981	717.249561370813	1299.351677055815	956.878223126603	583.115793865006	
39	52.603142857143	838.224534562383	1003.946432856642	494.234327345003	984.093555716729	1431.090863639729	292.477984067562	1110.985833445478	1364.890985296791	436.499049852817	1054.494424561142	1438.099150798099	621.013452685167	988.570365560522	1493.623868834732	450.875562770603	1076.940826722789	934.334329595622	579.918308631935	1031.727588119541	965.375271560110	309.739273745170	1100.208781206002	727.128396113248	554.608936070299	1020.645654375508	623.628048034219	631.620372097894	1088.687461359550	560.453653234578	550.419297265318	1079.969057077875	457.317285945951	571.956108328998	1098.417677562265	761.377370591274	330.595094997673	1014.976853331368	639.068551017854	276.195411875254	1110.622498262377	567.242115169287	329.069907077151	1116.931977484117	497.248136800224	336.573860485175	1091.680848127576	423.902506189333	328.888683342610	1003.026033901029	307.779585728625	279.613004058212	1061.906811111332	195.994928528482	344.331663877983	1011.522479385864	386.977677855059	585.127205127462	903.686563662991	331.530796008482	656.947982993503	897.814404759705	222.284682260668	605.093364391916	705.797964390191	118.143454467248	591.876598376014	883.812378867993	109.951585486044	624.546738230216	781.951602612254	80.854635070928	663.699405197644	977.870869117542	34.868111876394	651.844709232878	942.142906018513	38.951731839570	390.236140007381	1012.335153284576	35.659486925897	306.242707562818	1096.510794601395	97.059560677495	330.050856775691	1223.896941667218	44.785339598384	295.617726393211	933.286235140995	1084.632213704224	169.486705431543	1036.594694727223	843.508254472916	140.250349724840	1116.877697635900	1086.150712404527	715.734841650328	1289.788398965601	946.274464271207	585.242554228673	
